PathFileType	4	(X/Y/Z)
DataRate	CameraRate	NumFrames	NumMarkers	Units	OrigDataRate	OrigDataStartFrame	OrigNumFrames	
  120.0	  120.0	    5	     56	     mm	  120.0	      483	    551
Frame#	Time	LASI			RASI			LPSI			RPSI			RTH1			RTH2			RTH3			RLFC			RMFC			LTH1			LTH2			LTH3			LLFC			LMFC			RTB1			RTB2			RTB3			RLMAL			RMMAL			LTB1			LTB2			LTB3			LMMAL			LLMAL			RCAL			RTOE			RMT5			LCAL			LTOE			LMT5			LACR			RACR			CLAV			C7			LASH			LPSH			RASH			RPSH			RUA1			RUA2			RUA3			RLEL			RMEL			LUA1			LUA2			LUA3			LLEL			LMEL			RFAsuperior			RFAradius			RFAulna			LFAsuperior			LFAradius			LFAulna			RHJC			LHJC			
		X1	Y1	Z1	X2	Y2	Z2	X3	Y3	Z3	X4	Y4	Z4	X5	Y5	Z5	X6	Y6	Z6	X7	Y7	Z7	X8	Y8	Z8	X9	Y9	Z9	X10	Y10	Z10	X11	Y11	Z11	X12	Y12	Z12	X13	Y13	Z13	X14	Y14	Z14	X15	Y15	Z15	X16	Y16	Z16	X17	Y17	Z17	X18	Y18	Z18	X19	Y19	Z19	X20	Y20	Z20	X21	Y21	Z21	X22	Y22	Z22	X23	Y23	Z23	X24	Y24	Z24	X25	Y25	Z25	X26	Y26	Z26	X27	Y27	Z27	X28	Y28	Z28	X29	Y29	Z29	X30	Y30	Z30	X31	Y31	Z31	X32	Y32	Z32	X33	Y33	Z33	X34	Y34	Z34	X35	Y35	Z35	X36	Y36	Z36	X37	Y37	Z37	X38	Y38	Z38	X39	Y39	Z39	X40	Y40	Z40	X41	Y41	Z41	X42	Y42	Z42	X43	Y43	Z43	X44	Y44	Z44	X45	Y45	Z45	X46	Y46	Z46	X47	Y47	Z47	X48	Y48	Z48	X49	Y49	Z49	X50	Y50	Z50	X51	Y51	Z51	X52	Y52	Z52	X53	Y53	Z53	X54	Y54	Z54	X55	Y55	Z55	X56	Y56	Z56	

483	4.02500	566.88244	1027.06980	-695.53437	695.82844	1025.62549	-481.33115	462.50195	1046.02078	-535.98412	508.52401	1046.21379	-462.41718	675.76771	849.78293	-408.35950	698.61645	724.58953	-445.19943	621.68267	612.68920	-373.80513	632.98276	530.13547	-375.90500	548.09396	500.38022	-453.91557	492.50244	883.26402	-713.54070	527.85121	766.58045	-729.85270	446.41446	638.14002	-682.12051	435.17785	531.30844	-682.53397	506.37849	520.41403	-583.62389	632.21154	400.20892	-430.07234	635.63592	343.63435	-356.93270	609.62231	223.31874	-409.51853	591.09635	132.54781	-333.54779	567.15825	124.29209	-416.54991	494.06654	394.98447	-659.36189	421.07704	299.34615	-689.48298	468.16466	207.60461	-641.11349	463.22554	121.17672	-607.82629	391.99091	125.48155	-654.97520	514.08007	100.80431	-330.11236	689.00545	74.87621	-460.06166	717.06968	62.56166	-366.24187	361.96662	97.84907	-586.74558	543.79702	80.27916	-707.40183	470.96277	60.55300	-764.75144	435.61202	1470.65839	-673.97522	626.36130	1468.16199	-352.08425	633.32876	1457.15451	-546.61064	506.32551	1530.04346	-498.77571	515.03089	1444.98010	-680.66014	402.34549	1441.09631	-615.71430	677.81776	1445.56943	-402.54769	572.73901	1433.68237	-341.85776	678.21331	1372.96455	-286.71160	726.96370	1322.35609	-299.75798	682.02970	1276.17085	-219.24259	765.09300	1235.83193	-195.33594	715.29383	1172.45044	-234.12376	390.27847	1401.05124	-722.04377	365.65140	1312.46980	-708.27139	377.21972	1321.33572	-784.88437	351.70600	1234.58236	-855.29275	374.07275	1166.72559	-803.88799	831.79497	1243.43304	-244.92540	936.12100	1212.07755	-374.28143	963.47396	1184.57555	-320.59707	409.27134	1252.19509	-890.90516	581.23959	1232.86494	-940.83930	550.69572	1209.69335	-991.18967	627.12706	953.60999	-481.84333	536.42609	976.90796	-634.98570	
484	4.03333	566.90398	1027.06146	-695.53791	695.84014	1025.61667	-481.32652	462.57112	1045.95307	-535.99112	508.51513	1046.16465	-462.38894	675.78122	849.78366	-408.31584	698.63556	724.57705	-445.20260	621.69362	612.67582	-373.79326	633.00784	530.15103	-375.86950	548.13240	500.37055	-453.94535	492.52364	883.23363	-713.53231	527.88878	766.57438	-729.85384	446.42335	638.11735	-682.11352	435.19090	531.30710	-682.64738	506.37558	520.43371	-583.57245	632.24052	400.19972	-430.07590	635.67978	343.66229	-356.86134	609.65631	223.31812	-409.54500	591.11786	132.54164	-333.53561	567.19520	124.27120	-416.54307	494.13641	395.00685	-659.45142	421.09899	299.33459	-689.48997	468.20710	207.58945	-641.15068	463.42409	121.10332	-607.69518	392.02401	125.46306	-654.98936	514.12130	100.79613	-330.09645	689.06011	74.86936	-460.05260	717.09121	62.54832	-366.22825	361.97774	97.83211	-586.71882	543.81295	80.27978	-707.41852	470.98615	60.53677	-764.75325	435.59044	1470.61540	-673.96643	626.35176	1468.14722	-352.06697	633.29982	1457.14931	-546.58542	506.29676	1530.01948	-498.73284	515.03574	1444.95964	-680.71825	402.33960	1441.05656	-615.69652	677.81273	1445.56950	-402.51682	572.73026	1433.67592	-341.82127	678.21668	1372.96514	-286.68293	726.97936	1322.35490	-299.75448	682.05796	1276.16864	-219.22628	765.11948	1235.84230	-195.32572	715.34050	1172.44893	-234.11239	390.26078	1401.02635	-722.03120	365.67975	1312.45639	-708.26517	377.21487	1321.30291	-784.88609	351.71879	1234.54354	-855.29580	374.01954	1166.69251	-803.87591	831.82937	1243.44149	-244.92928	936.12669	1212.09676	-374.30891	963.48852	1184.60964	-320.60365	409.27001	1252.15532	-890.90032	581.23978	1232.84553	-940.80167	550.71357	1209.68032	-991.20949	627.17355	953.58279	-481.85633	536.45350	976.88435	-634.98664	
485	4.04167	566.85524	1027.06146	-695.51018	695.80703	1025.62153	-481.32631	462.64503	1045.88938	-535.98771	508.52063	1046.11775	-462.35772	675.81739	849.80067	-408.22203	698.62899	724.56904	-445.19888	621.72022	612.66918	-373.75001	633.10287	530.27475	-375.67162	548.07732	500.39075	-453.92543	492.47489	883.21847	-713.48476	527.83836	766.57189	-729.80283	446.36076	638.10935	-682.06253	435.13196	531.32310	-682.67059	506.36979	520.46904	-583.48272	632.21933	400.20016	-430.06246	635.73670	343.70534	-356.74154	609.62510	223.31927	-409.52176	591.16061	132.54853	-333.48781	567.16638	124.27120	-416.51734	494.07284	394.97715	-659.35254	421.07387	299.33897	-689.45053	468.18546	207.54965	-641.09260	463.48014	121.09299	-607.24175	391.99574	125.46392	-654.96665	514.11536	100.79438	-330.07278	689.05892	74.85459	-460.02720	717.08593	62.53292	-366.20170	362.00336	97.81778	-586.67751	543.79170	80.28733	-707.39725	470.95603	60.54694	-764.71312	435.52834	1470.58286	-673.93040	626.34441	1468.13284	-352.03352	633.24514	1457.15197	-546.53477	506.23621	1530.00565	-498.67486	514.94392	1444.95479	-680.66593	402.28555	1441.02515	-615.65668	677.78115	1445.57114	-402.47702	572.73617	1433.66030	-341.77089	678.22492	1372.96857	-286.64461	726.96821	1322.35692	-299.73477	682.09784	1276.17237	-219.19187	765.16236	1235.85053	-195.28841	715.34891	1172.47364	-234.09495	390.17569	1401.02310	-721.98650	365.55496	1312.42793	-708.23860	377.14060	1321.28588	-784.84395	351.66283	1234.51975	-855.25681	373.98530	1166.67987	-803.82522	831.84120	1243.44753	-244.91010	936.10796	1212.12196	-374.31285	963.51860	1184.64353	-320.55718	409.20761	1252.13609	-890.84583	581.18515	1232.83796	-940.73454	550.63681	1209.67812	-991.13866	627.19937	953.56572	-481.86475	536.43331	976.86739	-634.96756	
486	4.05000	566.73731	1027.08009	-695.45774	695.72769	1025.64217	-481.32694	462.69370	1045.85562	-535.98107	508.53978	1046.09887	-462.33038	675.85699	849.82645	-408.12900	698.59681	724.57105	-445.19242	621.74870	612.67539	-373.69474	633.26001	530.51126	-375.33643	547.95035	500.44073	-453.86826	492.36488	883.22530	-713.41151	527.71632	766.57923	-729.72763	446.23867	638.11740	-681.97936	435.01690	531.35113	-682.58533	506.36331	520.50714	-583.39191	632.14719	400.21404	-430.03234	635.78265	343.74629	-356.63015	609.53628	223.32794	-409.46438	591.20711	132.57033	-333.42789	567.08219	124.29619	-416.48254	493.89091	394.90756	-659.09419	421.01173	299.36428	-689.37548	468.11501	207.52413	-640.99283	463.35277	121.14655	-606.67534	391.91398	125.48419	-654.91343	514.07040	100.80160	-330.05382	689.00179	74.85087	-459.99998	717.05711	62.52540	-366.17701	362.03786	97.81078	-586.64256	543.74135	80.29892	-707.34664	470.88646	60.58234	-764.65245	435.42718	1470.57825	-673.87301	626.32810	1468.13589	-351.99362	633.16825	1457.17323	-546.47983	506.14843	1530.00774	-498.61993	514.76553	1444.96948	-680.51238	402.18432	1441.01706	-615.60187	677.71863	1445.58514	-402.44306	572.74522	1433.64837	-341.72083	678.23051	1372.98261	-286.61701	726.93151	1322.37025	-299.71186	682.13825	1276.18791	-219.15151	765.20990	1235.86456	-195.24595	715.32059	1172.52519	-234.07951	390.04087	1401.03807	-721.91904	365.31036	1312.39664	-708.19549	377.00698	1321.28788	-784.76368	351.54429	1234.51618	-855.18047	373.97212	1166.68568	-803.74927	831.82838	1243.46261	-244.88850	936.07057	1212.16136	-374.30443	963.55206	1184.68157	-320.50419	409.08672	1252.14015	-890.74914	581.08763	1232.85014	-940.65763	550.49357	1209.69336	-991.00138	627.18502	953.56927	-481.86600	536.36023	976.87226	-634.93360	
487	4.05833	566.56896	1027.11962	-695.38814	695.61557	1025.67414	-481.32511	462.70692	1045.85352	-535.98513	508.56159	1046.10919	-462.31273	675.88187	849.84907	-408.07947	698.54221	724.58356	-445.18767	621.76149	612.69124	-373.65235	633.41728	530.77158	-374.99987	547.77996	500.50679	-453.79539	492.20707	883.25010	-713.32902	527.55220	766.60047	-729.65451	446.07091	638.13798	-681.87816	434.85685	531.38571	-682.45265	506.35598	520.52692	-583.34895	632.02963	400.24167	-429.99100	635.80448	343.77321	-356.56759	609.39811	223.34164	-409.38089	591.23605	132.60615	-333.37593	566.95464	124.34014	-416.44186	493.63022	394.81403	-658.73561	420.91105	299.40415	-689.28838	468.00966	207.53367	-640.89648	462.99930	121.27379	-606.28982	391.79080	125.51560	-654.84163	513.99900	100.81788	-330.04893	688.90017	74.86968	-459.97943	717.00732	62.52825	-366.16627	362.06949	97.80814	-586.63110	543.67375	80.30925	-707.28854	470.78431	60.62939	-764.59087	435.29690	1470.60216	-673.80786	626.29899	1468.15866	-351.96321	633.07432	1457.21743	-546.43685	506.04209	1530.02236	-498.57711	514.53025	1445.00338	-680.28900	402.04415	1441.03425	-615.54362	677.62955	1445.61826	-402.42446	572.74112	1433.64666	-341.68679	678.22782	1373.00422	-286.60871	726.87799	1322.39776	-299.69910	682.16670	1276.20945	-219.12282	765.24629	1235.88589	-195.22354	715.26518	1172.59040	-234.07195	389.89200	1401.05393	-721.84267	364.97866	1312.38976	-708.12751	376.83209	1321.30430	-784.66062	351.37749	1234.52808	-855.07595	373.96170	1166.70346	-803.66037	831.79098	1243.49381	-244.88235	936.01627	1212.21521	-374.29264	963.57617	1184.72248	-320.48778	408.91914	1252.15907	-890.62460	580.95573	1232.88013	-940.59356	550.31212	1209.71890	-990.82143	627.12747	953.59157	-481.86037	536.25012	976.90022	-634.89591	
